<svg width="24" height="24" viewBox="0 0 24 24" fill="none" xmlns="http://www.w3.org/2000/svg">
<path d="M8.37528 20.2422H1.16013V4.1369H8.37528C9.82118 4.1369 11.0309 4.28722 12.0043 4.58785C12.9778 4.87417 13.758 5.33943 14.345 5.98364C14.9319 6.62785 15.3471 7.45817 15.5904 8.47459C15.8481 9.49101 15.977 10.7222 15.977 12.1681C15.977 13.614 15.8481 14.8523 15.5904 15.883C15.3471 16.8994 14.9319 17.7297 14.345 18.374C13.758 19.0182 12.9778 19.4906 12.0043 19.7912C11.0309 20.0919 9.82118 20.2422 8.37528 20.2422ZM8.46118 8.25985H6.31381V16.1192H8.46118C9.17697 16.1192 9.68518 16.0405 9.98581 15.883C10.3008 15.7112 10.4582 15.3318 10.4582 14.7449V9.63417C10.4582 9.04722 10.3008 8.67501 9.98581 8.51753C9.68518 8.34574 9.17697 8.25985 8.46118 8.25985Z" fill="url(#paint0_linear_574_80)"/>
<path d="M22.6876 15.3076L23.0798 19.9318C21.9989 20.3773 20.5955 20.6 18.8695 20.6C15.9406 20.6 13.8224 19.9051 12.5149 18.5151C11.2073 17.1074 10.5535 14.969 10.5535 12.1C10.5535 9.23106 11.2073 7.10161 12.5149 5.71167C13.8224 4.30391 15.9406 3.60004 18.8695 3.60004C20.735 3.60004 22.1384 3.82278 23.0798 4.26827L22.3215 8.62519C21.7636 8.51828 21.2667 8.43809 20.8309 8.38463C20.395 8.31335 20.0115 8.27771 19.6802 8.27771C18.0937 8.27771 17.3005 8.84794 17.3005 9.9884V15.7353C17.5969 15.7887 17.9368 15.8333 18.3204 15.8689C18.7213 15.9045 19.1659 15.9224 19.6541 15.9224C20.6304 15.9224 21.6415 15.7174 22.6876 15.3076Z" fill="url(#paint1_linear_574_80)"/>
<defs>
<linearGradient id="paint0_linear_574_80" x1="1.16013" y1="12.1895" x2="15.977" y2="12.1895" gradientUnits="userSpaceOnUse">
<stop stop-color="#01C2A3"/>
<stop offset="1" stop-color="#0048E5"/>
</linearGradient>
<linearGradient id="paint1_linear_574_80" x1="10.5535" y1="12.1" x2="23.0798" y2="12.1" gradientUnits="userSpaceOnUse">
<stop stop-color="#0048E4"/>
<stop offset="1" stop-color="#0197D3"/>
</linearGradient>
</defs>
</svg>
